<svg width="124" height="110" viewBox="0 0 124 110" fill="none" xmlns="http://www.w3.org/2000/svg">
<circle cx="67.3732" cy="54.5067" r="51.0919" fill="#F0F0F0"/>
<path d="M75.3112 42.4529L123.233 55.9768L118.235 109.19L60.9053 94.7844L75.3112 42.4529Z" fill="#D2D2D2"/>
<path d="M122.939 55.6827L72.6652 42.7468C70.2153 46.2748 63.9041 55.3887 58.2594 63.6206C52.6146 71.8526 42.7755 81.9465 38.5615 85.9645L97.361 103.31C98.439 102.722 103.006 98.43 112.649 85.9645C122.292 73.499 123.527 60.5827 122.939 55.6827Z" fill="#F3F3F3" stroke="#CCCCCC" stroke-width="0.587995"/>
<circle cx="77.0756" cy="56.5646" r="2.35198" fill="#C4C4C4"/>
<circle cx="70.02" cy="68.9125" r="2.35198" fill="#C4C4C4"/>
<circle cx="62.9633" cy="80.0844" r="2.35198" fill="#C4C4C4"/>
<circle cx="29.8204" cy="29.8632" r="21.4553" transform="rotate(25.8347 29.8204 29.8632)" fill="#F0F0F0" stroke="#D2D2D2" stroke-width="0.587995"/>
<rect width="11.7599" height="1.76398" transform="matrix(1 0 0 -1 23.0586 36.0371)" fill="#C4C4C4"/>
<circle cx="17.4723" cy="26.3353" r="3.23397" fill="#C4C4C4"/>
<circle cx="40.4039" cy="26.3353" r="3.23397" fill="#C4C4C4"/>
<rect x="76.0283" y="70.9424" width="28.2238" height="1.17599" rx="0.587995" transform="rotate(15.5 76.0283 70.9424)" fill="#C4C4C4"/>
<rect x="69.873" y="82.8582" width="25.5465" height="1.17599" rx="0.587995" transform="rotate(15.5 69.873 82.8582)" fill="#C4C4C4"/>
<rect x="83.7764" y="58.3555" width="28.2238" height="1.17599" rx="0.587995" transform="rotate(14.5 83.7764 58.3555)" fill="#C4C4C4"/>
</svg>
