<svg width="121" height="130" viewBox="0 0 121 130" fill="none" xmlns="http://www.w3.org/2000/svg">
<circle cx="64.231" cy="72.8918" r="56.648" fill="#F1F1F1"/>
<path d="M114.093 50.0672C111.869 58.1092 104.579 76.0313 91.4682 79.3629C78.3572 82.6946 72.1305 79.1714 70.8735 77.496" stroke="#CCCCCC" stroke-width="1.44144"/>
<mask id="path-3-inside-1_252_79136" fill="white">
<path fill-rule="evenodd" clip-rule="evenodd" d="M49.6028 32.58L37.145 45.9692V113.204H91.3175V45.9692L79.198 32.58H49.6028ZM60.4785 55.08C63.6081 55.08 66.1451 52.5429 66.1451 49.4134C66.1451 46.2838 63.6081 43.7467 60.4785 43.7467C57.3489 43.7467 54.8119 46.2838 54.8119 49.4134C54.8119 52.5429 57.3489 55.08 60.4785 55.08Z"/>
</mask>
<path fill-rule="evenodd" clip-rule="evenodd" d="M49.6028 32.58L37.145 45.9692V113.204H91.3175V45.9692L79.198 32.58H49.6028ZM60.4785 55.08C63.6081 55.08 66.1451 52.5429 66.1451 49.4134C66.1451 46.2838 63.6081 43.7467 60.4785 43.7467C57.3489 43.7467 54.8119 46.2838 54.8119 49.4134C54.8119 52.5429 57.3489 55.08 60.4785 55.08Z" fill="white"/>
<path d="M37.145 45.9692L36.3361 45.2166L36.0401 45.5347V45.9692H37.145ZM49.6028 32.58V31.4751H49.1216L48.7939 31.8273L49.6028 32.58ZM37.145 113.204H36.0401V114.309H37.145V113.204ZM91.3175 113.204V114.309H92.4224V113.204H91.3175ZM91.3175 45.9692H92.4224V45.5434L92.1367 45.2277L91.3175 45.9692ZM79.198 32.58L80.0172 31.8385L79.6882 31.4751H79.198V32.58ZM37.9539 46.7218L50.4117 33.3326L48.7939 31.8273L36.3361 45.2166L37.9539 46.7218ZM38.2499 113.204V45.9692H36.0401V113.204H38.2499ZM91.3175 112.099H37.145V114.309H91.3175V112.099ZM90.2126 45.9692V113.204H92.4224V45.9692H90.2126ZM78.3789 33.3214L90.4984 46.7107L92.1367 45.2277L80.0172 31.8385L78.3789 33.3214ZM49.6028 33.6848H79.198V31.4751H49.6028V33.6848ZM65.0402 49.4134C65.0402 51.9327 62.9979 53.9751 60.4785 53.9751V56.1848C64.2183 56.1848 67.25 53.1531 67.25 49.4134H65.0402ZM60.4785 44.8516C62.9979 44.8516 65.0402 46.894 65.0402 49.4134H67.25C67.25 45.6736 64.2183 42.6419 60.4785 42.6419V44.8516ZM55.9168 49.4134C55.9168 46.894 57.9591 44.8516 60.4785 44.8516V42.6419C56.7387 42.6419 53.707 45.6736 53.707 49.4134H55.9168ZM60.4785 53.9751C57.9591 53.9751 55.9168 51.9327 55.9168 49.4134H53.707C53.707 53.1531 56.7387 56.1848 60.4785 56.1848V53.9751Z" fill="#CCCCCC" mask="url(#path-3-inside-1_252_79136)"/>
<path d="M56.6851 72.8919C56.6851 73.6234 56.541 74.3478 56.261 75.0237C55.9811 75.6996 55.5707 76.3137 55.0534 76.831C54.5361 77.3483 53.922 77.7587 53.2461 78.0386C52.5702 78.3186 51.8458 78.4627 51.1143 78.4627C50.3827 78.4627 49.6583 78.3186 48.9824 78.0386C48.3065 77.7587 47.6924 77.3483 47.1751 76.831C46.6578 76.3137 46.2475 75.6996 45.9675 75.0237C45.6876 74.3478 45.5435 73.6234 45.5435 72.8919H46.7716C46.7716 73.4621 46.8839 74.0268 47.1022 74.5537C47.3204 75.0806 47.6403 75.5593 48.0435 75.9626C48.4468 76.3658 48.9255 76.6857 49.4524 76.904C49.9793 77.1222 50.544 77.2345 51.1143 77.2345C51.6846 77.2345 52.2493 77.1222 52.7761 76.904C53.303 76.6857 53.7817 76.3658 54.185 75.9626C54.5883 75.5593 54.9081 75.0806 55.1264 74.5537C55.3446 74.0268 55.4569 73.4621 55.4569 72.8919H56.6851Z" fill="#CCCCCC"/>
<path d="M66.0489 87.6442C66.0489 86.9126 65.9048 86.1882 65.6248 85.5123C65.3448 84.8364 64.9345 84.2223 64.4172 83.705C63.8999 83.1877 63.2858 82.7774 62.6099 82.4974C61.934 82.2174 61.2096 82.0733 60.478 82.0733C59.7465 82.0733 59.0221 82.2174 58.3462 82.4974C57.6703 82.7774 57.0562 83.1877 56.5389 83.705C56.0216 84.2223 55.6112 84.8364 55.3313 85.5123C55.0513 86.1882 54.9072 86.9126 54.9072 87.6442H56.1354C56.1354 87.0739 56.2477 86.5092 56.4659 85.9823C56.6842 85.4554 57.0041 84.9767 57.4073 84.5734C57.8106 84.1702 58.2893 83.8503 58.8162 83.632C59.343 83.4138 59.9078 83.3015 60.478 83.3015C61.0483 83.3015 61.613 83.4138 62.1399 83.632C62.6668 83.8503 63.1455 84.1702 63.5488 84.5734C63.952 84.9767 64.2719 85.4554 64.4901 85.9823C64.7084 86.5092 64.8207 87.0739 64.8207 87.6442H66.0489Z" fill="#CCCCCC"/>
<path d="M75.4131 72.8919C75.4131 73.6234 75.269 74.3478 74.9891 75.0237C74.7091 75.6996 74.2988 76.3137 73.7815 76.831C73.2642 77.3483 72.65 77.7587 71.9742 78.0386C71.2983 78.3186 70.5739 78.4627 69.8423 78.4627C69.1107 78.4627 68.3863 78.3186 67.7104 78.0386C67.0346 77.7587 66.4204 77.3483 65.9031 76.831C65.3858 76.3137 64.9755 75.6996 64.6955 75.0237C64.4156 74.3478 64.2715 73.6234 64.2715 72.8919H65.4996C65.4996 73.4621 65.612 74.0268 65.8302 74.5537C66.0484 75.0806 66.3683 75.5593 66.7716 75.9626C67.1748 76.3658 67.6536 76.6857 68.1804 76.904C68.7073 77.1222 69.272 77.2345 69.8423 77.2345C70.4126 77.2345 70.9773 77.1222 71.5042 76.904C72.031 76.6857 72.5098 76.3658 72.913 75.9626C73.3163 75.5593 73.6362 75.0806 73.8544 74.5537C74.0726 74.0268 74.185 73.4621 74.185 72.8919H75.4131Z" fill="#CCCCCC"/>
<rect x="37.8318" y="99.8013" width="52.7983" height="13.2127" fill="#FAFAFA" stroke="#CCCCCC" stroke-width="1.10488"/>
<circle cx="59.106" cy="16.7757" r="3.07619" fill="#C4C4C4"/>
<circle cx="98.4265" cy="18.1567" r="1.3811" fill="#C4C4C4"/>
<circle cx="91.1028" cy="39.8862" r="1.3811" fill="#C4C4C4"/>
<circle cx="111.146" cy="54.6066" r="1.79543" fill="#C4C4C4"/>
<circle cx="27.0635" cy="11.9041" r="1.79543" fill="#C4C4C4"/>
<path d="M81.6927 3.90244L83.3453 2.24987L84.5401 3.44466L82.8875 5.09723L84.7553 6.96495L83.4964 8.22383L81.6287 6.35611L79.9715 8.01325L78.7767 6.81846L80.4339 5.16132L78.644 3.37142L79.9028 2.11254L81.6927 3.90244Z" fill="#E6E6E6"/>
<path d="M38.4198 20.4377L39.7501 19.1073L40.712 20.0691L39.3816 21.3995L40.8852 22.9031L39.8717 23.9165L38.3682 22.413L37.0341 23.747L36.0723 22.7852L37.4063 21.4511L35.9654 20.0102L36.9788 18.9967L38.4198 20.4377Z" fill="#E6E6E6"/>
<path d="M20.6184 43.0332L21.4662 42.1854L22.0791 42.7984L21.2313 43.6462L22.1895 44.6044L21.5437 45.2502L20.5855 44.292L19.7353 45.1422L19.1224 44.5292L19.9725 43.6791L19.0543 42.7608L19.7001 42.115L20.6184 43.0332Z" fill="#E6E6E6"/>
<path d="M111.216 34.693L112.064 33.8452L112.677 34.4582L111.829 35.306L112.787 36.2642L112.141 36.91L111.183 35.9518L110.333 36.802L109.72 36.189L110.57 35.3389L109.652 34.4206L110.298 33.7748L111.216 34.693Z" fill="#E6E6E6"/>
<path d="M1.12109 94.8928C4.37043 83.1424 15.0226 56.9557 34.1796 52.0877C53.3365 47.2196 62.4347 52.3675 64.2713 54.8155" stroke="#CCCCCC" stroke-width="1.44144"/>
</svg>
