<svg width="182" height="32" viewBox="0 0 182 32" fill="none" xmlns="http://www.w3.org/2000/svg">
<path d="M6.21052 22.8309L12.0762 14.7996L22.8149 0H16.2174L5.30487 14.9301V0H0V32H5.30487V24.054L6.21052 22.8309ZM12.8528 15.8921L9.53034 20.43L17.9839 32H24.5841L12.8528 15.8921Z" fill="#864622"/>
<path d="M44.639 0L28.8113 32H60.4273L44.639 0ZM44.639 10.9145L52.6187 27.1103H36.662L44.639 10.9145Z" fill="#864622"/>
<path d="M89.2394 11.9191C89.2394 5.32667 83.9766 0 77.5055 0H64.8264V32H70.1313V5.41461H77.5055C81.0438 5.41461 83.9319 8.33775 83.9319 11.9191C83.9319 15.4977 81.0438 18.4235 77.5055 18.4235H71.0369L72.1137 23.7928H76.2997L82.2496 32H88.8497L82.2074 22.8309C86.3487 20.955 89.2394 16.7634 89.2394 11.9191Z" fill="#864622"/>
<path d="M106.274 0H93.5952V32H98.9001V5.41461H106.274C109.813 5.41461 112.701 8.33775 112.701 11.9191C112.701 15.4977 109.813 18.4235 106.274 18.4235H99.8926L100.927 23.7928H106.274C112.745 23.7928 118.008 18.4662 118.008 11.9191C118.008 5.32667 112.745 0 106.274 0Z" fill="#864622"/>
<path d="M138.018 0L122.191 32H153.807L138.018 0ZM138.018 10.9145L145.998 27.1103H130.041L138.018 10.9145Z" fill="#864622"/>
<path d="M176.535 0V32H181.842V0H176.535ZM174.939 17.2884H163.511V0H158.206V32H163.511V22.6577H173.905L174.939 17.2884Z" fill="#864622"/>
</svg> 