<svg width="118" height="32" viewBox="0 0 118 32" fill="none" xmlns="http://www.w3.org/2000/svg">
<path d="M10.518 12.9665C14.3586 11.1297 17.3643 8.01266 19.0898 4.11639C17.9766 2.94751 16.5294 2.1126 14.9709 1.61165L14.136 1.33334C14.0803 1.44467 14.0246 1.61166 14.0246 1.72298C12.6888 5.50792 9.9614 8.56927 6.28778 10.2948C3.72737 11.5193 1.8349 13.7457 0.94432 16.4175L0.666016 17.2524C0.777338 17.308 0.944323 17.3637 1.05564 17.3637C2.1132 17.7533 3.17076 18.2543 4.17266 18.8665C5.56418 16.3618 7.79062 14.2467 10.518 12.9665Z" fill="#1B1C1E"/>
<path opacity="0.8" d="M26.6596 13.1891C24.6001 16.3061 21.7614 18.8109 18.2548 20.4807C15.4161 21.8166 13.2453 24.3213 12.2434 27.327L11.9651 28.2732C13.0226 29.2195 14.3028 29.9431 15.6944 30.3884L16.5293 30.6667C16.5849 30.5553 16.6406 30.3884 16.6406 30.277C17.9765 26.4921 20.7039 23.4307 24.3775 21.7053C26.9379 20.4807 28.886 18.2543 29.7209 15.5825L29.9992 14.7476C28.8304 14.4137 27.7171 13.857 26.6596 13.1891Z" fill="#1B1C1E"/>
<path opacity="0.9" d="M9.73884 25.3788C11.1304 22.0391 13.6908 19.3117 16.9748 17.7532C19.9805 16.306 22.4852 14.0796 24.2107 11.3522C22.9305 10.1277 21.8729 8.73614 21.0937 7.06631C19.0342 10.8513 15.8059 13.9126 11.854 15.8051C9.57186 16.8627 7.73505 18.6995 6.62183 20.9259C7.84637 22.0948 8.84827 23.542 9.62752 25.1561C9.62752 25.1561 9.68318 25.2675 9.73884 25.3788Z" fill="#1B1C1E"/>
<path d="M36.6328 22.6667H46.0128V20.0667H39.6528V8.66667H36.6328V22.6667Z" fill="#1B1C1E"/>
<path d="M55.8127 12.5867H53.0127V18.1067C53.0127 19.3867 52.1527 20.3467 50.9327 20.3467C49.7927 20.3467 48.9927 19.4667 48.9927 18.2467V12.5867H46.2127V18.8667C46.2127 21.1667 47.6927 22.8267 49.9527 22.8267C51.3327 22.8267 52.4527 22.2267 53.0127 21.2667V22.6667H55.8127V12.5867Z" fill="#1B1C1E"/>
<path d="M56.8528 22.6667H59.6528V16.9467C59.6528 15.6467 60.3928 14.7867 61.5528 14.7867C62.6328 14.7867 63.3128 15.6467 63.3128 16.9467V22.6667H66.1128V16.9467C66.1128 15.6467 66.8528 14.7867 68.0128 14.7867C69.0928 14.7867 69.7928 15.6467 69.7928 16.9467V22.6667H72.5728V16.0667C72.5728 14.0467 71.1528 12.4267 68.9528 12.4267C67.3328 12.4267 66.0728 13.2867 65.5928 14.2667C65.1128 13.0667 64.0928 12.4267 62.5128 12.4267C61.1528 12.4267 60.1928 13.0867 59.6528 14.0067V12.5867H56.8528V22.6667Z" fill="#1B1C1E"/>
<path d="M73.5267 8.20667V11.1467H76.4867V8.20667H73.5267ZM73.6067 22.6667H76.4067V12.5867H73.6067V22.6667Z" fill="#1B1C1E"/>
<path d="M77.4505 22.6667H80.2505V17.1467C80.2505 15.8467 81.1105 14.9067 82.3305 14.9067C83.4905 14.9067 84.2705 15.7867 84.2705 17.0067V22.6667H87.0705V16.3867C87.0705 14.0667 85.5905 12.4267 83.3105 12.4267C81.9305 12.4267 80.8105 13.0067 80.2505 13.9867V12.5867H77.4505V22.6667Z" fill="#1B1C1E"/>
<path d="M92.9106 22.8267C96.0106 22.8267 98.2306 20.6267 98.2306 17.6267C98.2306 14.6267 96.0106 12.4267 92.9106 12.4267C89.8106 12.4267 87.5906 14.6267 87.5906 17.6267C87.5906 20.6267 89.8106 22.8267 92.9106 22.8267ZM92.9106 20.4267C91.4106 20.4267 90.3906 19.2867 90.3906 17.6267C90.3906 15.9467 91.4106 14.8067 92.9106 14.8067C94.4106 14.8067 95.4306 15.9467 95.4306 17.6267C95.4306 19.2867 94.4106 20.4267 92.9106 20.4267Z" fill="#1B1C1E"/>
<path d="M108.371 12.5867H105.571V18.1067C105.571 19.3867 104.711 20.3467 103.491 20.3467C102.351 20.3467 101.551 19.4667 101.551 18.2467V12.5867H98.7713V18.8667C98.7713 21.1667 100.251 22.8267 102.511 22.8267C103.891 22.8267 105.011 22.2267 105.571 21.2667V22.6667H108.371V12.5867Z" fill="#1B1C1E"/>
<path d="M113.091 22.8267C115.451 22.8267 117.011 21.5667 117.011 19.6467C117.011 15.0867 111.491 17.4267 111.491 15.3667C111.491 14.7267 112.031 14.3867 112.811 14.3867C113.571 14.3867 114.351 14.8467 114.471 15.7067H116.891C116.791 13.7267 115.151 12.4267 112.731 12.4267C110.671 12.4267 109.131 13.6867 109.131 15.4667C109.131 19.7067 114.551 17.6867 114.551 19.7467C114.551 20.3067 113.951 20.7267 113.091 20.7267C112.051 20.7267 111.351 20.1667 111.251 19.2667H108.851C108.951 21.4467 110.631 22.8267 113.091 22.8267Z" fill="#1B1C1E"/>
</svg>
