<svg width="136" height="32" viewBox="0 0 136 32" fill="none" xmlns="http://www.w3.org/2000/svg">
<path fill-rule="evenodd" clip-rule="evenodd" d="M0.666016 16C9.98842 16 15.3327 10.6557 15.3327 1.33334C15.3327 10.6557 20.6769 16 29.9993 16C20.6769 16 15.3327 21.3443 15.3327 30.6667C15.3327 21.3443 9.98842 16 0.666016 16Z" fill="#1B1C1E"/>
<path d="M35.7927 22.6061L40.9127 8.60612H43.7927L48.9127 22.6061H46.1927L45.0727 19.3661H39.6127L38.4727 22.6061H35.7927ZM40.3127 17.3661H44.3727L42.3327 11.5461L40.3127 17.3661Z" fill="#1B1C1E"/>
<path d="M54.0474 22.8461C53.0341 22.8461 52.1407 22.6261 51.3674 22.1861C50.5941 21.7461 49.9807 21.1328 49.5274 20.3461C49.0874 19.5595 48.8674 18.6595 48.8674 17.6461C48.8674 16.6328 49.0874 15.7328 49.5274 14.9461C49.9807 14.1595 50.5941 13.5461 51.3674 13.1061C52.1407 12.6661 53.0341 12.4461 54.0474 12.4461C55.3141 12.4461 56.3807 12.7795 57.2474 13.4461C58.1141 14.0995 58.6674 15.0061 58.9074 16.1661H56.2074C56.0741 15.6861 55.8074 15.3128 55.4074 15.0461C55.0207 14.7661 54.5607 14.6261 54.0274 14.6261C53.3207 14.6261 52.7207 14.8928 52.2274 15.4261C51.7341 15.9595 51.4874 16.6995 51.4874 17.6461C51.4874 18.5928 51.7341 19.3328 52.2274 19.8661C52.7207 20.3995 53.3207 20.6661 54.0274 20.6661C54.5607 20.6661 55.0207 20.5328 55.4074 20.2661C55.8074 19.9995 56.0741 19.6195 56.2074 19.1261H58.9074C58.6674 20.2461 58.1141 21.1461 57.2474 21.8261C56.3807 22.5061 55.3141 22.8461 54.0474 22.8461Z" fill="#1B1C1E"/>
<path d="M60.1796 22.6061V12.6861H62.4396L62.6596 14.0261C62.9796 13.5461 63.3996 13.1661 63.9196 12.8861C64.4529 12.5928 65.0663 12.4461 65.7596 12.4461C67.2929 12.4461 68.3796 13.0395 69.0196 14.2261C69.3796 13.6795 69.8596 13.2461 70.4596 12.9261C71.0729 12.6061 71.7396 12.4461 72.4596 12.4461C73.7529 12.4461 74.7463 12.8328 75.4396 13.6061C76.1329 14.3795 76.4796 15.5128 76.4796 17.0061V22.6061H73.9196V17.2461C73.9196 16.3928 73.7529 15.7395 73.4196 15.2861C73.0996 14.8328 72.5996 14.6061 71.9196 14.6061C71.2263 14.6061 70.6663 14.8595 70.2396 15.3661C69.8263 15.8728 69.6196 16.5795 69.6196 17.4861V22.6061H67.0596V17.2461C67.0596 16.3928 66.8929 15.7395 66.5596 15.2861C66.2263 14.8328 65.7129 14.6061 65.0196 14.6061C64.3396 14.6061 63.7863 14.8595 63.3596 15.3661C62.9463 15.8728 62.7396 16.5795 62.7396 17.4861V22.6061H60.1796Z" fill="#1B1C1E"/>
<path d="M82.7301 22.8461C81.7301 22.8461 80.8434 22.6328 80.0701 22.2061C79.2967 21.7795 78.6901 21.1795 78.2501 20.4061C77.8101 19.6328 77.5901 18.7395 77.5901 17.7261C77.5901 16.6995 77.8034 15.7861 78.2301 14.9861C78.6701 14.1861 79.2701 13.5661 80.0301 13.1261C80.8034 12.6728 81.7101 12.4461 82.7501 12.4461C83.7234 12.4461 84.5834 12.6595 85.3301 13.0861C86.0767 13.5128 86.6567 14.0995 87.0701 14.8461C87.4967 15.5795 87.7101 16.3995 87.7101 17.3061C87.7101 17.4528 87.7034 17.6061 87.6901 17.7661C87.6901 17.9261 87.6834 18.0928 87.6701 18.2661H80.1301C80.1834 19.0395 80.4501 19.6461 80.9301 20.0861C81.4234 20.5261 82.0167 20.7461 82.7101 20.7461C83.2301 20.7461 83.6634 20.6328 84.0101 20.4061C84.3701 20.1661 84.6367 19.8595 84.8101 19.4861H87.4101C87.2234 20.1128 86.9101 20.6861 86.4701 21.2061C86.0434 21.7128 85.5101 22.1128 84.8701 22.4061C84.2434 22.6995 83.5301 22.8461 82.7301 22.8461ZM82.7501 14.5261C82.1234 14.5261 81.5701 14.7061 81.0901 15.0661C80.6101 15.4128 80.3034 15.9461 80.1701 16.6661H85.1101C85.0701 16.0128 84.8301 15.4928 84.3901 15.1061C83.9501 14.7195 83.4034 14.5261 82.7501 14.5261Z" fill="#1B1C1E"/>
<path d="M99.0288 22.8461C97.6155 22.8461 96.4022 22.5461 95.3888 21.9461C94.3755 21.3328 93.5955 20.4861 93.0488 19.4061C92.5022 18.3128 92.2288 17.0528 92.2288 15.6261C92.2288 14.1995 92.5022 12.9395 93.0488 11.8461C93.5955 10.7528 94.3755 9.89945 95.3888 9.28612C96.4022 8.67279 97.6155 8.36612 99.0288 8.36612C100.709 8.36612 102.082 8.78612 103.149 9.62612C104.229 10.4528 104.902 11.6195 105.169 13.1261H102.349C102.175 12.3661 101.802 11.7728 101.229 11.3461C100.669 10.9061 99.9221 10.6861 98.9888 10.6861C97.6955 10.6861 96.6822 11.1261 95.9488 12.0061C95.2155 12.8861 94.8488 14.0928 94.8488 15.6261C94.8488 17.1595 95.2155 18.3661 95.9488 19.2461C96.6822 20.1128 97.6955 20.5461 98.9888 20.5461C99.9221 20.5461 100.669 20.3461 101.229 19.9461C101.802 19.5328 102.175 18.9661 102.349 18.2461H105.169C104.902 19.6861 104.229 20.8128 103.149 21.6261C102.082 22.4395 100.709 22.8461 99.0288 22.8461Z" fill="#1B1C1E"/>
<path d="M111.135 22.8461C110.175 22.8461 109.308 22.6261 108.535 22.1861C107.775 21.7461 107.168 21.1395 106.715 20.3661C106.275 19.5795 106.055 18.6728 106.055 17.6461C106.055 16.6195 106.282 15.7195 106.735 14.9461C107.188 14.1595 107.795 13.5461 108.555 13.1061C109.328 12.6661 110.195 12.4461 111.155 12.4461C112.102 12.4461 112.955 12.6661 113.715 13.1061C114.488 13.5461 115.095 14.1595 115.535 14.9461C115.988 15.7195 116.215 16.6195 116.215 17.6461C116.215 18.6728 115.988 19.5795 115.535 20.3661C115.095 21.1395 114.488 21.7461 113.715 22.1861C112.942 22.6261 112.082 22.8461 111.135 22.8461ZM111.135 20.6261C111.802 20.6261 112.382 20.3795 112.875 19.8861C113.368 19.3795 113.615 18.6328 113.615 17.6461C113.615 16.6595 113.368 15.9195 112.875 15.4261C112.382 14.9195 111.808 14.6661 111.155 14.6661C110.475 14.6661 109.888 14.9195 109.395 15.4261C108.915 15.9195 108.675 16.6595 108.675 17.6461C108.675 18.6328 108.915 19.3795 109.395 19.8861C109.888 20.3795 110.468 20.6261 111.135 20.6261Z" fill="#1B1C1E"/>
<path d="M117.504 22.6061V12.6861H119.784L120.024 14.5461C120.384 13.9061 120.87 13.3995 121.484 13.0261C122.11 12.6395 122.844 12.4461 123.684 12.4461V15.1461H122.964C122.404 15.1461 121.904 15.2328 121.464 15.4061C121.024 15.5795 120.677 15.8795 120.424 16.3061C120.184 16.7328 120.064 17.3261 120.064 18.0861V22.6061H117.504Z" fill="#1B1C1E"/>
<path d="M124.434 27.0061V12.6861H126.714L126.993 14.1061C127.313 13.6661 127.734 13.2795 128.254 12.9461C128.787 12.6128 129.474 12.4461 130.314 12.4461C131.247 12.4461 132.08 12.6728 132.814 13.1261C133.547 13.5795 134.127 14.1995 134.554 14.9861C134.98 15.7728 135.194 16.6661 135.194 17.6661C135.194 18.6661 134.98 19.5595 134.554 20.3461C134.127 21.1195 133.547 21.7328 132.814 22.1861C132.08 22.6261 131.247 22.8461 130.314 22.8461C129.567 22.8461 128.914 22.7061 128.354 22.4261C127.794 22.1461 127.34 21.7528 126.993 21.2461V27.0061H124.434ZM129.774 20.6061C130.587 20.6061 131.26 20.3328 131.794 19.7861C132.327 19.2395 132.594 18.5328 132.594 17.6661C132.594 16.7995 132.327 16.0861 131.794 15.5261C131.26 14.9661 130.587 14.6861 129.774 14.6861C128.947 14.6861 128.267 14.9661 127.734 15.5261C127.214 16.0728 126.954 16.7795 126.954 17.6461C126.954 18.5128 127.214 19.2261 127.734 19.7861C128.267 20.3328 128.947 20.6061 129.774 20.6061Z" fill="#1B1C1E"/>
</svg>
