<svg width="119" height="32" viewBox="0 0 119 32" fill="none" xmlns="http://www.w3.org/2000/svg">
<path d="M9.38671 2.44977C11.1662 1.71275 13.0734 1.33334 14.9994 1.33334V8.66668C14.0364 8.66668 13.0828 8.85634 12.1931 9.22493C11.3033 9.59344 10.4949 10.1336 9.81397 10.8145C9.13302 11.4955 8.59286 12.3039 8.22435 13.1936C7.85576 14.0834 7.6661 15.037 7.6661 16H0.332764C0.332764 14.074 0.712169 12.1667 1.44919 10.3873C2.1863 8.60784 3.2666 6.99107 4.6285 5.62908C5.99049 4.26718 7.60726 3.18687 9.38671 2.44977Z" fill="#1B1C1E"/>
<path opacity="0.8" d="M0.332764 16C0.332764 17.926 0.712169 19.8333 1.44919 21.6127C2.1863 23.3922 3.2666 25.0089 4.6285 26.3709C5.99049 27.7328 7.60726 28.8131 9.38671 29.5502C11.1662 30.2873 13.0734 30.6667 14.9994 30.6667C16.9255 30.6667 18.8327 30.2873 20.6122 29.5502C22.3916 28.8131 24.0084 27.7328 25.3704 26.3709C26.7323 25.0089 27.8126 23.3922 28.5497 21.6127C29.2867 19.8333 29.6661 17.926 29.6661 16H22.3328C22.3328 16.9631 22.1431 17.9166 21.7745 18.8064C21.406 19.6961 20.8658 20.5045 20.1849 21.1855C19.5039 21.8664 18.6955 22.4066 17.8058 22.7751C16.9161 23.1437 15.9625 23.3333 14.9994 23.3333C14.0364 23.3333 13.0828 23.1437 12.1931 22.7751C11.3033 22.4066 10.4949 21.8664 9.81397 21.1855C9.13302 20.5045 8.59286 19.6961 8.22435 18.8064C7.85576 17.9166 7.6661 16.9631 7.6661 16H0.332764Z" fill="#1B1C1E"/>
<path opacity="0.8" d="M14.9994 11.3333C12.4221 11.3333 10.3328 13.4227 10.3328 16H19.6661C19.6661 13.4227 17.5768 11.3333 14.9994 11.3333Z" fill="#1B1C1E"/>
<path d="M14.9994 20.6667C12.4221 20.6667 10.3328 18.5773 10.3328 16H19.6661C19.6661 18.5773 17.5768 20.6667 14.9994 20.6667Z" fill="#1B1C1E"/>
<path d="M44.8773 12.9347C44.8242 12.4 44.5967 11.9846 44.1945 11.6885C43.7924 11.3924 43.2466 11.2444 42.5572 11.2444C42.0888 11.2444 41.6933 11.3107 41.3707 11.4432C41.048 11.5714 40.8006 11.7504 40.6282 11.9802C40.4603 12.21 40.3763 12.4707 40.3763 12.7624C40.3675 13.0054 40.4183 13.2175 40.5288 13.3987C40.6437 13.5799 40.8006 13.7368 40.9994 13.8694C41.1983 13.9975 41.4281 14.1102 41.6888 14.2074C41.9496 14.3003 42.228 14.3798 42.5241 14.4461L43.7438 14.7378C44.3359 14.8703 44.8795 15.0471 45.3744 15.2681C45.8694 15.489 46.298 15.7608 46.6604 16.0834C47.0228 16.406 47.3034 16.786 47.5023 17.2235C47.7056 17.661 47.8094 18.1626 47.8138 18.7283C47.8094 19.5591 47.5973 20.2794 47.1775 20.8893C46.7621 21.4947 46.1611 21.9653 45.3744 22.3012C44.5922 22.6326 43.6487 22.7984 42.5439 22.7984C41.448 22.7984 40.4934 22.6304 39.6803 22.2946C38.8716 21.9587 38.2397 21.4616 37.7845 20.8031C37.3337 20.1402 37.0973 19.3205 37.0752 18.3438H39.8527C39.8836 18.799 40.014 19.179 40.2438 19.484C40.478 19.7845 40.7895 20.0121 41.1784 20.1667C41.5717 20.317 42.0159 20.3921 42.5108 20.3921C42.9969 20.3921 43.4189 20.3214 43.7769 20.18C44.1393 20.0386 44.4199 19.8419 44.6188 19.59C44.8176 19.3381 44.9171 19.0487 44.9171 18.7217C44.9171 18.4167 44.8265 18.1604 44.6453 17.9527C44.4685 17.745 44.2078 17.5682 43.8631 17.4224C43.5228 17.2766 43.1052 17.144 42.6102 17.0247L41.132 16.6535C39.9874 16.3751 39.0837 15.9398 38.4208 15.3476C37.758 14.7554 37.4287 13.9578 37.4331 12.9546C37.4287 12.1326 37.6475 11.4145 38.0894 10.8003C38.5357 10.186 39.1478 9.7065 39.9256 9.3618C40.7034 9.01711 41.5872 8.84476 42.5771 8.84476C43.5847 8.84476 44.4641 9.01711 45.2153 9.3618C45.971 9.7065 46.5588 10.186 46.9786 10.8003C47.3984 11.4145 47.615 12.126 47.6282 12.9347H44.8773Z" fill="#1B1C1E"/>
<path d="M54.3316 22.805C53.2842 22.805 52.3827 22.5929 51.627 22.1686C50.8758 21.74 50.2969 21.1345 49.8903 20.3523C49.4837 19.5657 49.2805 18.6355 49.2805 17.5616C49.2805 16.5143 49.4837 15.5951 49.8903 14.804C50.2969 14.013 50.8692 13.3965 51.6072 12.9546C52.3496 12.5127 53.2202 12.2917 54.2189 12.2917C54.8906 12.2917 55.5159 12.4 56.0948 12.6165C56.6782 12.8287 57.1864 13.1491 57.6195 13.5777C58.057 14.0064 58.3972 14.5455 58.6403 15.1951C58.8834 15.8403 59.0049 16.596 59.0049 17.4622V18.2378H50.4073V16.4878H56.3467C56.3467 16.0812 56.2584 15.721 56.0816 15.4073C55.9048 15.0935 55.6596 14.8482 55.3458 14.6715C55.0364 14.4903 54.6763 14.3997 54.2653 14.3997C53.8366 14.3997 53.4566 14.4991 53.1251 14.698C52.7981 14.8924 52.5418 15.1554 52.3562 15.4868C52.1706 15.8138 52.0756 16.1784 52.0712 16.5806V18.2444C52.0712 18.7482 52.164 19.1835 52.3496 19.5503C52.5396 19.917 52.807 20.1999 53.1517 20.3987C53.4964 20.5976 53.9051 20.697 54.378 20.697C54.6918 20.697 54.979 20.6528 55.2397 20.5645C55.5005 20.4761 55.7236 20.3435 55.9092 20.1667C56.0948 19.99 56.2363 19.7734 56.3335 19.5171L58.9452 19.6895C58.8126 20.317 58.5409 20.865 58.1299 21.3334C57.7233 21.7974 57.1974 22.1598 56.5522 22.4205C55.9114 22.6768 55.1712 22.805 54.3316 22.805Z" fill="#1B1C1E"/>
<path d="M65.4348 26.6364C64.52 26.6364 63.7356 26.5105 63.0816 26.2586C62.432 26.0111 61.9149 25.673 61.5305 25.2444C61.146 24.8157 60.8963 24.334 60.7814 23.7993L63.3931 23.448C63.4727 23.6513 63.5986 23.8413 63.771 24.0181C63.9433 24.1948 64.1709 24.3362 64.4537 24.4423C64.741 24.5528 65.0901 24.608 65.5011 24.608C66.1154 24.608 66.6214 24.4578 67.0191 24.1573C67.4212 23.8612 67.6223 23.364 67.6223 22.6658V20.8031H67.503C67.3793 21.0859 67.1936 21.3533 66.9462 21.6052C66.6987 21.8571 66.3805 22.0626 65.9916 22.2217C65.6027 22.3807 65.1387 22.4603 64.5996 22.4603C63.8351 22.4603 63.139 22.2835 62.5115 21.93C61.8884 21.572 61.3912 21.0263 61.02 20.2927C60.6532 19.5547 60.4698 18.6222 60.4698 17.4953C60.4698 16.3419 60.6577 15.3785 61.0333 14.6052C61.4089 13.8318 61.9083 13.2529 62.5314 12.8684C63.1589 12.484 63.8461 12.2917 64.593 12.2917C65.163 12.2917 65.6403 12.3889 66.0248 12.5834C66.4092 12.7734 66.7186 13.0121 66.9528 13.2993C67.1914 13.5821 67.3748 13.8605 67.503 14.1345H67.6091V12.4243H70.413V22.7056C70.413 23.5717 70.2009 24.2965 69.7767 24.8798C69.3524 25.4631 68.7647 25.9006 68.0134 26.1923C67.2666 26.4884 66.407 26.6364 65.4348 26.6364ZM65.4945 20.3391C65.9496 20.3391 66.3341 20.2264 66.6479 20.001C66.9661 19.7712 67.2091 19.4442 67.377 19.0199C67.5494 18.5913 67.6356 18.0787 67.6356 17.4821C67.6356 16.8855 67.5516 16.3684 67.3837 15.9309C67.2157 15.489 66.9727 15.1465 66.6545 14.9035C66.3363 14.6604 65.9496 14.5389 65.4945 14.5389C65.0305 14.5389 64.6394 14.6648 64.3212 14.9167C64.003 15.1642 63.7621 15.5089 63.5986 15.9508C63.4351 16.3927 63.3534 16.9032 63.3534 17.4821C63.3534 18.0698 63.4351 18.578 63.5986 19.0067C63.7666 19.4309 64.0074 19.7602 64.3212 19.9944C64.6394 20.2242 65.0305 20.3391 65.4945 20.3391Z" fill="#1B1C1E"/>
<path d="M72.6602 22.6061V12.4243H75.3515V14.2207H75.4708C75.6829 13.6241 76.0364 13.1535 76.5314 12.8088C77.0263 12.4641 77.6185 12.2917 78.3079 12.2917C79.0061 12.2917 79.6005 12.4663 80.0911 12.8154C80.5816 13.1601 80.9086 13.6285 81.0721 14.2207H81.1782C81.3859 13.6374 81.7615 13.1711 82.3051 12.822C82.8531 12.4685 83.5005 12.2917 84.2473 12.2917C85.1974 12.2917 85.9686 12.5944 86.5608 13.1999C87.1573 13.8009 87.4556 14.6538 87.4556 15.7586V22.6061H84.6384V16.3154C84.6384 15.7497 84.4882 15.3255 84.1876 15.0427C83.8871 14.7598 83.5115 14.6184 83.0608 14.6184C82.5481 14.6184 82.1482 14.7819 81.8609 15.109C81.5737 15.4316 81.4301 15.858 81.4301 16.3883V22.6061H78.6924V16.2557C78.6924 15.7564 78.5488 15.3586 78.2615 15.0626C77.9787 14.7665 77.6053 14.6184 77.1413 14.6184C76.8275 14.6184 76.5447 14.698 76.2928 14.8571C76.0453 15.0117 75.8486 15.2305 75.7028 15.5133C75.557 15.7917 75.4841 16.1187 75.4841 16.4944V22.6061H72.6602Z" fill="#1B1C1E"/>
<path d="M94.3264 22.805C93.279 22.805 92.3775 22.5929 91.6218 22.1686C90.8706 21.74 90.2917 21.1345 89.8851 20.3523C89.4785 19.5657 89.2752 18.6355 89.2752 17.5616C89.2752 16.5143 89.4785 15.5951 89.8851 14.804C90.2917 14.013 90.8639 13.3965 91.6019 12.9546C92.3444 12.5127 93.215 12.2917 94.2137 12.2917C94.8854 12.2917 95.5107 12.4 96.0896 12.6165C96.673 12.8287 97.1812 13.1491 97.6143 13.5777C98.0518 14.0064 98.392 14.5455 98.6351 15.1951C98.8781 15.8403 98.9997 16.596 98.9997 17.4622V18.2378H90.4021V16.4878H96.3415C96.3415 16.0812 96.2531 15.721 96.0764 15.4073C95.8996 15.0935 95.6543 14.8482 95.3406 14.6715C95.0312 14.4903 94.6711 14.3997 94.2601 14.3997C93.8314 14.3997 93.4514 14.4991 93.1199 14.698C92.7929 14.8924 92.5366 15.1554 92.351 15.4868C92.1654 15.8138 92.0704 16.1784 92.066 16.5806V18.2444C92.066 18.7482 92.1588 19.1835 92.3444 19.5503C92.5344 19.917 92.8018 20.1999 93.1465 20.3987C93.4912 20.5976 93.8999 20.697 94.3728 20.697C94.6865 20.697 94.9738 20.6528 95.2345 20.5645C95.4953 20.4761 95.7184 20.3435 95.904 20.1667C96.0896 19.99 96.2311 19.7734 96.3283 19.5171L98.94 19.6895C98.8074 20.317 98.5357 20.865 98.1247 21.3334C97.7181 21.7974 97.1922 22.1598 96.547 22.4205C95.9062 22.6768 95.166 22.805 94.3264 22.805Z" fill="#1B1C1E"/>
<path d="M103.666 16.7198V22.6061H100.842V12.4243H103.534V14.2207H103.653C103.878 13.6285 104.256 13.1601 104.787 12.8154C105.317 12.4663 105.96 12.2917 106.716 12.2917C107.423 12.2917 108.039 12.4464 108.565 12.7557C109.091 13.0651 109.5 13.507 109.791 14.0815C110.083 14.6516 110.229 15.3321 110.229 16.1232V22.6061H107.405V16.627C107.409 16.0038 107.25 15.5177 106.928 15.1686C106.605 14.8151 106.161 14.6383 105.595 14.6383C105.215 14.6383 104.879 14.7201 104.588 14.8836C104.3 15.0471 104.075 15.2857 103.912 15.5995C103.753 15.9088 103.671 16.2823 103.666 16.7198Z" fill="#1B1C1E"/>
<path d="M117.87 12.4243V14.5455H111.739V12.4243H117.87ZM113.131 9.98491H115.954V19.4773C115.954 19.7381 115.994 19.9413 116.074 20.0872C116.153 20.2286 116.264 20.328 116.405 20.3855C116.551 20.4429 116.719 20.4717 116.909 20.4717C117.042 20.4717 117.174 20.4606 117.307 20.4385C117.439 20.412 117.541 20.3921 117.612 20.3788L118.056 22.4802C117.914 22.5244 117.715 22.5752 117.459 22.6326C117.203 22.6945 116.891 22.7321 116.525 22.7453C115.844 22.7718 115.247 22.6812 114.735 22.4735C114.227 22.2658 113.831 21.9432 113.548 21.5057C113.265 21.0682 113.126 20.5158 113.131 19.8485V9.98491Z" fill="#1B1C1E"/>
</svg>
