<svg width="119" height="32" viewBox="0 0 119 32" fill="none" xmlns="http://www.w3.org/2000/svg">
<circle cx="13.3326" cy="16" r="11.3333" stroke="#1B1C1E" stroke-width="4"/>
<path d="M44.1219 13.6088C44.1219 14.3057 43.9539 14.959 43.6179 15.5688C43.2944 16.1786 42.7779 16.6701 42.0686 17.0435C41.3717 17.4168 40.4882 17.6035 39.4179 17.6035H37.2339V22.6061H34.6206V9.57679H39.4179C40.4259 9.57679 41.2846 9.75101 41.9939 10.0995C42.7033 10.4479 43.2322 10.927 43.5806 11.5368C43.9415 12.1466 44.1219 12.8372 44.1219 13.6088ZM39.3059 15.4941C40.0277 15.4941 40.5628 15.3323 40.9113 15.0088C41.2597 14.6728 41.4339 14.2061 41.4339 13.6088C41.4339 12.3395 40.7246 11.7048 39.3059 11.7048H37.2339V15.4941H39.3059Z" fill="#1B1C1E"/>
<path d="M49.8227 22.7741C48.8272 22.7741 47.9312 22.5563 47.1347 22.1208C46.3383 21.6728 45.7098 21.0443 45.2494 20.2355C44.8014 19.4266 44.5774 18.4932 44.5774 17.4355C44.5774 16.3777 44.8076 15.4443 45.268 14.6355C45.7409 13.8266 46.3818 13.2043 47.1907 12.7688C47.9996 12.3208 48.9018 12.0968 49.8974 12.0968C50.8929 12.0968 51.7952 12.3208 52.604 12.7688C53.4129 13.2043 54.0476 13.8266 54.508 14.6355C54.9809 15.4443 55.2174 16.3777 55.2174 17.4355C55.2174 18.4932 54.9747 19.4266 54.4894 20.2355C54.0165 21.0443 53.3694 21.6728 52.548 22.1208C51.7392 22.5563 50.8307 22.7741 49.8227 22.7741ZM49.8227 20.4968C50.2956 20.4968 50.7374 20.3848 51.148 20.1608C51.5712 19.9243 51.9072 19.5759 52.156 19.1155C52.4049 18.655 52.5294 18.095 52.5294 17.4355C52.5294 16.4523 52.268 15.6995 51.7454 15.1768C51.2352 14.6417 50.6067 14.3741 49.86 14.3741C49.1134 14.3741 48.4849 14.6417 47.9747 15.1768C47.4769 15.6995 47.228 16.4523 47.228 17.4355C47.228 18.4186 47.4707 19.1777 47.956 19.7128C48.4538 20.2355 49.076 20.4968 49.8227 20.4968Z" fill="#1B1C1E"/>
<path d="M59.001 8.79279V22.6061H56.3877V8.79279H59.001Z" fill="#1B1C1E"/>
<path d="M70.7297 12.2648L64.327 27.4968H61.5457L63.7857 22.3448L59.6417 12.2648H62.5723L65.2417 19.4888L67.9483 12.2648H70.7297Z" fill="#1B1C1E"/>
<path d="M84.2344 12.1155C85.5038 12.1155 86.5242 12.5075 87.2958 13.2915C88.0798 14.063 88.4718 15.1457 88.4718 16.5395V22.6061H85.8584V16.8941C85.8584 16.0852 85.6531 15.4692 85.2424 15.0461C84.8318 14.6106 84.2718 14.3928 83.5624 14.3928C82.8531 14.3928 82.2869 14.6106 81.8638 15.0461C81.4531 15.4692 81.2478 16.0852 81.2478 16.8941V22.6061H78.6344V16.8941C78.6344 16.0852 78.4291 15.4692 78.0184 15.0461C77.6078 14.6106 77.0478 14.3928 76.3384 14.3928C75.6166 14.3928 75.0442 14.6106 74.6211 15.0461C74.2104 15.4692 74.0051 16.0852 74.0051 16.8941V22.6061H71.3918V12.2648H74.0051V13.5155C74.3411 13.0799 74.7704 12.7377 75.2931 12.4888C75.8282 12.2399 76.4131 12.1155 77.0478 12.1155C77.8566 12.1155 78.5784 12.2897 79.2131 12.6381C79.8478 12.9741 80.3393 13.4595 80.6878 14.0941C81.0238 13.4968 81.5091 13.0177 82.1438 12.6568C82.7909 12.2959 83.4878 12.1155 84.2344 12.1155Z" fill="#1B1C1E"/>
<path d="M89.533 17.3981C89.533 16.3528 89.7383 15.4257 90.149 14.6168C90.5721 13.8079 91.1383 13.1857 91.8477 12.7501C92.5694 12.3146 93.3721 12.0968 94.2557 12.0968C95.0272 12.0968 95.6992 12.2523 96.2716 12.5635C96.8565 12.8746 97.3232 13.2666 97.6717 13.7395V12.2648H100.304V22.6061H97.6717V21.0941C97.3357 21.5795 96.869 21.9839 96.2716 22.3075C95.6868 22.6186 95.0085 22.7741 94.237 22.7741C93.3659 22.7741 92.5694 22.5501 91.8477 22.1021C91.1383 21.6541 90.5721 21.0257 90.149 20.2168C89.7383 19.3955 89.533 18.4559 89.533 17.3981ZM97.6717 17.4355C97.6717 16.8008 97.5472 16.2595 97.2983 15.8115C97.0494 15.351 96.7134 15.0026 96.2903 14.7661C95.8672 14.5172 95.413 14.3928 94.9277 14.3928C94.4423 14.3928 93.9943 14.511 93.5836 14.7475C93.173 14.9839 92.837 15.3323 92.5756 15.7928C92.3268 16.2408 92.2023 16.7759 92.2023 17.3981C92.2023 18.0203 92.3268 18.5679 92.5756 19.0408C92.837 19.5012 93.173 19.8559 93.5836 20.1048C94.0068 20.3537 94.4548 20.4781 94.9277 20.4781C95.413 20.4781 95.8672 20.3599 96.2903 20.1235C96.7134 19.8746 97.0494 19.5261 97.2983 19.0781C97.5472 18.6177 97.6717 18.0701 97.6717 17.4355Z" fill="#1B1C1E"/>
<path d="M105.152 14.4115V19.4141C105.152 19.7626 105.233 20.0177 105.395 20.1795C105.569 20.3288 105.855 20.4035 106.253 20.4035H107.467V22.6061H105.824C103.621 22.6061 102.52 21.5359 102.52 19.3955V14.4115H101.288V12.2648H102.52V9.70745H105.152V12.2648H107.467V14.4115H105.152Z" fill="#1B1C1E"/>
<path d="M114.424 12.1155C115.208 12.1155 115.905 12.2897 116.514 12.6381C117.124 12.9741 117.597 13.4781 117.933 14.1501C118.281 14.8097 118.456 15.6061 118.456 16.5395V22.6061H115.842V16.8941C115.842 16.0728 115.637 15.4443 115.226 15.0088C114.816 14.5608 114.256 14.3368 113.546 14.3368C112.825 14.3368 112.252 14.5608 111.829 15.0088C111.418 15.4443 111.213 16.0728 111.213 16.8941V22.6061H108.6V8.79279H111.213V13.5528C111.549 13.1048 111.997 12.7563 112.557 12.5075C113.117 12.2461 113.739 12.1155 114.424 12.1155Z" fill="#1B1C1E"/>
</svg>
