<svg width="133" height="32" viewBox="0 0 133 32" fill="none" xmlns="http://www.w3.org/2000/svg">
<path opacity="0.8" d="M24.5372 7.4421C24.249 7.15396 23.9609 6.86581 23.6728 6.57766C22.8083 5.65559 21.8862 4.73353 20.7337 4.15723C19.4082 3.46568 17.9675 3.63856 16.5267 3.63856C14.3368 3.63856 8.86201 3.63856 5.63477 3.63856L7.82468 6.57766C11.8011 6.57766 18.0251 6.57766 20.9065 6.57766C22.1168 6.57766 23.1541 6.80818 24.1338 7.4421C24.3067 7.49973 24.4796 7.49973 24.5372 7.4421Z" fill="#1B1C1E"/>
<path opacity="0.9" d="M26.9576 12.1677C26.6694 11.8796 26.3813 11.5915 26.0931 11.3033C25.2287 10.3812 24.3066 9.45917 23.1541 8.88287C21.8286 8.19132 20.3878 8.36421 18.9471 8.36421C17.0453 8.36421 12.4926 8.36421 9.26538 8.36421L11.4553 11.3033C15.3741 11.3033 20.7336 11.3033 23.3846 11.3033C24.5948 11.3033 25.6321 11.5338 26.6118 12.1677C26.7271 12.2254 26.8423 12.2254 26.9576 12.1677Z" fill="#1B1C1E"/>
<path d="M29.6662 16.778C29.378 16.4898 29.0899 16.2017 28.8017 15.9135C27.9373 14.9914 27.0152 14.0694 25.8626 13.4931C24.5371 12.8015 23.0964 12.9744 21.6557 12.9744C19.8692 12.9744 15.9504 12.9744 12.7808 12.9744L14.9707 15.9135C18.7742 15.9135 23.6151 15.9135 26.0355 15.9135C27.2457 15.9135 28.2831 16.144 29.2627 16.778C29.4356 16.8356 29.5509 16.8932 29.6662 16.778Z" fill="#1B1C1E"/>
<path opacity="0.8" d="M5.40405 24.5579C5.6922 24.846 5.98035 25.1342 6.26849 25.4223C7.13293 26.3444 8.055 27.2665 9.20758 27.8428C10.5331 28.5343 11.9738 28.3614 13.4145 28.3614H24.3065L22.1166 25.4223C18.1401 25.4223 11.9162 25.4223 9.0347 25.4223C7.82449 25.4223 6.78716 25.1918 5.80746 24.5579C5.63457 24.5003 5.51931 24.5003 5.40405 24.5579Z" fill="#1B1C1E"/>
<path opacity="0.9" d="M2.98389 19.8324C3.27203 20.1206 3.56018 20.4087 3.84833 20.6969C4.71277 21.6189 5.63483 22.541 6.78742 23.1173C8.11289 23.8089 9.55363 23.636 10.9944 23.636H20.6761L18.4862 20.6969C14.5674 20.6969 9.20785 20.6969 6.5569 20.6969C5.34669 20.6969 4.30936 20.4664 3.32966 19.8324C3.2144 19.7748 3.09915 19.7748 2.98389 19.8324Z" fill="#1B1C1E"/>
<path d="M0.332764 15.1643C0.62091 15.4525 0.909057 15.7406 1.1972 16.0288C2.06164 16.9508 2.98372 17.8729 4.1363 18.4492C5.46178 19.1407 6.90251 18.9679 8.34324 18.9679H17.2182L15.0282 16.0288C11.2247 16.0288 6.38385 16.0288 3.96341 16.0288C2.7532 16.0288 1.71587 15.7982 0.736167 15.1643C0.563279 15.1067 0.448022 15.1067 0.332764 15.1643Z" fill="#1B1C1E"/>
<path d="M36.2876 9.33865V22.6667H39.2183V17.16H44.7996V14.8827H39.2183V11.8027H45.6583V9.33865H36.2876Z" fill="#1B1C1E"/>
<path d="M53.0087 16.8053H48.6967C48.7091 16.6187 48.7465 16.4071 48.8087 16.1707C48.8834 15.9342 49.0016 15.7102 49.1634 15.4987C49.3376 15.2871 49.5616 15.1129 49.8354 14.976C50.1216 14.8267 50.4763 14.752 50.8994 14.752C51.5465 14.752 52.0256 14.9262 52.3367 15.2747C52.6603 15.6231 52.8843 16.1333 53.0087 16.8053ZM48.6967 18.4853H55.6594C55.7091 17.7387 55.6469 17.0231 55.4727 16.3387C55.2985 15.6542 55.0123 15.0444 54.614 14.5093C54.2283 13.9742 53.7305 13.5511 53.1207 13.24C52.5109 12.9164 51.7954 12.7547 50.974 12.7547C50.2398 12.7547 49.5678 12.8853 48.958 13.1467C48.3607 13.408 47.8443 13.7689 47.4087 14.2293C46.9731 14.6773 46.6371 15.2124 46.4007 15.8347C46.1643 16.4569 46.046 17.1289 46.046 17.8507C46.046 18.5973 46.158 19.2818 46.382 19.904C46.6185 20.5262 46.9483 21.0613 47.3714 21.5093C47.7945 21.9573 48.3109 22.3058 48.9207 22.5547C49.5305 22.7911 50.2149 22.9093 50.974 22.9093C52.0691 22.9093 53.0025 22.6604 53.774 22.1627C54.5456 21.6649 55.118 20.8373 55.4914 19.68H53.158C53.0709 19.9787 52.8345 20.2649 52.4487 20.5387C52.0629 20.8 51.6025 20.9307 51.0674 20.9307C50.3207 20.9307 49.7483 20.7378 49.35 20.352C48.9518 19.9662 48.734 19.344 48.6967 18.4853Z" fill="#1B1C1E"/>
<path d="M56.5595 15.984C56.5968 15.3618 56.7523 14.8453 57.0261 14.4347C57.2999 14.024 57.6483 13.6942 58.0715 13.4453C58.4946 13.1964 58.9675 13.0222 59.4901 12.9227C60.0252 12.8107 60.5603 12.7547 61.0955 12.7547C61.5808 12.7547 62.0723 12.792 62.5701 12.8667C63.0679 12.9289 63.5221 13.0595 63.9328 13.2587C64.3435 13.4578 64.6795 13.7378 64.9408 14.0987C65.2021 14.4471 65.3328 14.9138 65.3328 15.4987V20.52C65.3328 20.9555 65.3577 21.3724 65.4075 21.7707C65.4572 22.1689 65.5443 22.4675 65.6688 22.6667H62.9808C62.931 22.5173 62.8875 22.368 62.8501 22.2187C62.8252 22.0569 62.8066 21.8951 62.7941 21.7333C62.371 22.1689 61.8732 22.4738 61.3008 22.648C60.7283 22.8222 60.1435 22.9093 59.5461 22.9093C59.0857 22.9093 58.6563 22.8533 58.2581 22.7413C57.8599 22.6293 57.5115 22.4551 57.2128 22.2187C56.9141 21.9822 56.6777 21.6835 56.5035 21.3227C56.3417 20.9618 56.2608 20.5324 56.2608 20.0347C56.2608 19.4871 56.3541 19.0391 56.5408 18.6907C56.7399 18.3298 56.9888 18.0435 57.2875 17.832C57.5986 17.6204 57.947 17.4649 58.3328 17.3653C58.731 17.2533 59.1292 17.1662 59.5275 17.104C59.9257 17.0418 60.3177 16.992 60.7035 16.9547C61.0892 16.9173 61.4315 16.8613 61.7301 16.7867C62.0288 16.712 62.2652 16.6062 62.4395 16.4693C62.6137 16.32 62.6946 16.1084 62.6821 15.8347C62.6821 15.5484 62.6323 15.3244 62.5328 15.1627C62.4457 14.9884 62.3212 14.8578 62.1595 14.7707C62.0101 14.6711 61.8297 14.6089 61.6181 14.584C61.419 14.5467 61.2012 14.528 60.9648 14.528C60.4421 14.528 60.0315 14.64 59.7328 14.864C59.4341 15.088 59.2599 15.4613 59.2101 15.984H56.5595ZM62.6821 17.944C62.5701 18.0435 62.427 18.1244 62.2528 18.1867C62.091 18.2364 61.9106 18.28 61.7115 18.3173C61.5248 18.3547 61.3257 18.3858 61.1141 18.4107C60.9026 18.4355 60.691 18.4667 60.4795 18.504C60.2803 18.5413 60.0812 18.5911 59.8821 18.6533C59.6955 18.7155 59.5275 18.8027 59.3781 18.9147C59.2412 19.0142 59.1292 19.1449 59.0421 19.3067C58.955 19.4684 58.9115 19.6738 58.9115 19.9227C58.9115 20.1591 58.955 20.3582 59.0421 20.52C59.1292 20.6818 59.2475 20.8124 59.3968 20.912C59.5461 20.9991 59.7203 21.0613 59.9195 21.0987C60.1186 21.136 60.3239 21.1547 60.5355 21.1547C61.0581 21.1547 61.4626 21.0675 61.7488 20.8933C62.035 20.7191 62.2466 20.5138 62.3835 20.2773C62.5203 20.0284 62.6012 19.7795 62.6261 19.5307C62.6635 19.2818 62.6821 19.0827 62.6821 18.9333V17.944Z" fill="#1B1C1E"/>
<path d="M70.1902 13.016V10.1227H67.5395V13.016H65.9342V14.7893H67.5395V20.4827C67.5395 20.968 67.6204 21.36 67.7822 21.6587C67.944 21.9573 68.1618 22.1875 68.4355 22.3493C68.7218 22.5111 69.0453 22.6169 69.4062 22.6667C69.7795 22.7289 70.1715 22.76 70.5822 22.76C70.8435 22.76 71.1111 22.7538 71.3849 22.7413C71.6586 22.7289 71.9075 22.704 72.1315 22.6667V20.6133C72.0071 20.6382 71.8764 20.6569 71.7395 20.6693C71.6026 20.6818 71.4595 20.688 71.3102 20.688C70.8622 20.688 70.5635 20.6133 70.4142 20.464C70.2649 20.3147 70.1902 20.016 70.1902 19.568V14.7893H72.1315V13.016H70.1902Z" fill="#1B1C1E"/>
<path d="M72.8327 9.33865V22.6667H75.4834V17.608C75.4834 16.6249 75.6451 15.9218 75.9687 15.4987C76.2923 15.0631 76.8149 14.8453 77.5367 14.8453C78.1714 14.8453 78.6131 15.0444 78.862 15.4427C79.1109 15.8284 79.2354 16.4195 79.2354 17.216V22.6667H81.886V16.7307C81.886 16.1333 81.83 15.592 81.718 15.1067C81.6185 14.6089 81.438 14.192 81.1767 13.856C80.9154 13.5075 80.5545 13.24 80.094 13.0533C79.646 12.8542 79.0674 12.7547 78.358 12.7547C77.8603 12.7547 77.35 12.8853 76.8274 13.1467C76.3047 13.3955 75.8754 13.8 75.5394 14.36H75.4834V9.33865H72.8327Z" fill="#1B1C1E"/>
<path d="M89.8338 16.8053H85.5218C85.5343 16.6187 85.5716 16.4071 85.6338 16.1707C85.7085 15.9342 85.8267 15.7102 85.9885 15.4987C86.1627 15.2871 86.3867 15.1129 86.6605 14.976C86.9467 14.8267 87.3014 14.752 87.7245 14.752C88.3716 14.752 88.8507 14.9262 89.1618 15.2747C89.4854 15.6231 89.7094 16.1333 89.8338 16.8053ZM85.5218 18.4853H92.4845C92.5343 17.7387 92.472 17.0231 92.2978 16.3387C92.1236 15.6542 91.8374 15.0444 91.4391 14.5093C91.0534 13.9742 90.5556 13.5511 89.9458 13.24C89.336 12.9164 88.6205 12.7547 87.7991 12.7547C87.0649 12.7547 86.3929 12.8853 85.7831 13.1467C85.1858 13.408 84.6694 13.7689 84.2338 14.2293C83.7983 14.6773 83.4623 15.2124 83.2258 15.8347C82.9894 16.4569 82.8711 17.1289 82.8711 17.8507C82.8711 18.5973 82.9831 19.2818 83.2071 19.904C83.4436 20.5262 83.7734 21.0613 84.1965 21.5093C84.6196 21.9573 85.136 22.3058 85.7458 22.5547C86.3556 22.7911 87.04 22.9093 87.7991 22.9093C88.8943 22.9093 89.8276 22.6604 90.5991 22.1627C91.3707 21.6649 91.9431 20.8373 92.3165 19.68H89.9831C89.896 19.9787 89.6596 20.2649 89.2738 20.5387C88.888 20.8 88.4276 20.9307 87.8925 20.9307C87.1458 20.9307 86.5734 20.7378 86.1751 20.352C85.7769 19.9662 85.5591 19.344 85.5218 18.4853Z" fill="#1B1C1E"/>
<path d="M93.4966 13.016V22.6667H96.1472V18.3173C96.1472 17.8818 96.1908 17.4773 96.2779 17.104C96.365 16.7307 96.5081 16.4071 96.7072 16.1333C96.9188 15.8471 97.1926 15.6231 97.5286 15.4613C97.8646 15.2995 98.2752 15.2187 98.7606 15.2187C98.9223 15.2187 99.0903 15.2311 99.2646 15.256C99.4388 15.2684 99.5881 15.2871 99.7126 15.312V12.848C99.501 12.7858 99.3081 12.7547 99.1339 12.7547C98.7979 12.7547 98.4743 12.8044 98.1632 12.904C97.8521 13.0035 97.5597 13.1467 97.2859 13.3333C97.0121 13.5075 96.7695 13.7253 96.5579 13.9867C96.3463 14.2355 96.1783 14.5093 96.0539 14.808H96.0166V13.016H93.4966Z" fill="#1B1C1E"/>
<path d="M103.402 20.2027V11.8027H105.493C106.215 11.8027 106.818 11.9084 107.304 12.12C107.802 12.3191 108.2 12.6115 108.498 12.9973C108.797 13.3831 109.009 13.8498 109.133 14.3973C109.27 14.9324 109.338 15.536 109.338 16.208C109.338 16.9422 109.245 17.5644 109.058 18.0747C108.872 18.5849 108.623 19.0018 108.312 19.3253C108.001 19.6364 107.646 19.8604 107.248 19.9973C106.85 20.1342 106.439 20.2027 106.016 20.2027H103.402ZM100.472 9.33865V22.6667H106.221C107.242 22.6667 108.125 22.4987 108.872 22.1627C109.631 21.8142 110.259 21.3413 110.757 20.744C111.267 20.1467 111.647 19.4373 111.896 18.616C112.145 17.7947 112.269 16.8987 112.269 15.928C112.269 14.8204 112.114 13.856 111.802 13.0347C111.504 12.2133 111.081 11.5289 110.533 10.9813C109.998 10.4338 109.357 10.0231 108.61 9.74932C107.876 9.47554 107.08 9.33865 106.221 9.33865H100.472Z" fill="#1B1C1E"/>
<path d="M119.964 16.8053H115.652C115.664 16.6187 115.701 16.4071 115.764 16.1707C115.838 15.9342 115.957 15.7102 116.118 15.4987C116.293 15.2871 116.517 15.1129 116.79 14.976C117.077 14.8267 117.431 14.752 117.854 14.752C118.501 14.752 118.981 14.9262 119.292 15.2747C119.615 15.6231 119.839 16.1333 119.964 16.8053ZM115.652 18.4853H122.614C122.664 17.7387 122.602 17.0231 122.428 16.3387C122.253 15.6542 121.967 15.0444 121.569 14.5093C121.183 13.9742 120.685 13.5511 120.076 13.24C119.466 12.9164 118.75 12.7547 117.929 12.7547C117.195 12.7547 116.523 12.8853 115.913 13.1467C115.316 13.408 114.799 13.7689 114.364 14.2293C113.928 14.6773 113.592 15.2124 113.356 15.8347C113.119 16.4569 113.001 17.1289 113.001 17.8507C113.001 18.5973 113.113 19.2818 113.337 19.904C113.573 20.5262 113.903 21.0613 114.326 21.5093C114.749 21.9573 115.266 22.3058 115.876 22.5547C116.485 22.7911 117.17 22.9093 117.929 22.9093C119.024 22.9093 119.957 22.6604 120.729 22.1627C121.501 21.6649 122.073 20.8373 122.446 19.68H120.113C120.026 19.9787 119.789 20.2649 119.404 20.5387C119.018 20.8 118.557 20.9307 118.022 20.9307C117.276 20.9307 116.703 20.7378 116.305 20.352C115.907 19.9662 115.689 19.344 115.652 18.4853Z" fill="#1B1C1E"/>
<path d="M128.965 22.6667L132.232 13.016H129.6L127.565 19.6053H127.528L125.493 13.016H122.712L126.016 22.6667H128.965Z" fill="#1B1C1E"/>
</svg>
