<svg width="133" height="32" viewBox="0 0 133 32" fill="none" xmlns="http://www.w3.org/2000/svg">
<path d="M8.22101 2.9903L11.6533 15.7999V1.71676C11.9255 1.65325 12.2006 1.59732 12.4783 1.5492V15.8012L16.3388 1.39368C16.617 1.41886 16.893 1.45182 17.1665 1.49232L13.2749 16.0159L21.0104 2.6177C21.2624 2.73107 21.5106 2.85135 21.7548 2.9783L13.9905 16.4265L25.075 5.34194C25.2749 5.53093 25.4694 5.72547 25.6584 5.92533L14.5722 17.0115L28.022 9.24627C28.1489 9.49049 28.2692 9.73874 28.3825 9.99076L14.9876 17.7243L29.5072 13.8338C29.5477 14.1073 29.5807 14.3833 29.6058 14.6615L15.1985 18.5219H29.4501C29.402 18.7997 29.346 19.0747 29.2825 19.3469L15.1963 19.3469L28.0084 22.7799C27.8768 23.0319 27.7381 23.2795 27.5926 23.5226L14.9864 20.1448L25.5155 26.2237C25.3161 26.4287 25.1109 26.6279 24.8999 26.821L14.5748 20.8598L22.3876 28.6726C22.1405 28.817 21.8888 28.9544 21.6327 29.0844L13.9906 21.4423L18.9978 30.115C18.7237 30.1926 18.4462 30.2623 18.1658 30.324L13.2754 21.8535L15.6333 30.6532C15.4231 30.6622 15.2118 30.6667 14.9994 30.6667C14.9269 30.6667 14.8546 30.6661 14.7823 30.6651L12.4783 22.0664V30.4508C12.2006 30.4027 11.9255 30.3468 11.6533 30.2833V22.0677L9.62181 29.6495C9.36269 29.5473 9.10718 29.438 8.85553 29.3217L10.8561 21.8554L7.10059 28.3601C6.86809 28.2112 6.64007 28.056 6.41677 27.8946L10.1428 21.4409L4.92475 26.6589C4.7249 26.47 4.53035 26.2755 4.34137 26.0756L9.55774 20.8592L3.10596 24.5842C2.94452 24.3609 2.78922 24.1329 2.6403 23.9004L9.14814 20.1431L1.6781 22.1447C1.56183 21.893 1.45248 21.6375 1.35029 21.3784L8.93198 19.3469H0.71637C0.652843 19.0747 0.596895 18.7997 0.54876 18.5219L8.92976 18.5219L0.334362 16.2188C0.333298 16.146 0.332764 16.0731 0.332764 16C0.332764 15.7882 0.337253 15.5774 0.346143 15.3678L9.14694 17.726L0.675178 12.8348C0.736865 12.5544 0.806577 12.277 0.884062 12.0028L9.56035 17.0121L1.91499 9.3667C2.04506 9.11064 2.18242 8.85891 2.32681 8.61179L10.1429 16.4279L4.17928 6.09859C4.37238 5.88769 4.57157 5.68244 4.77657 5.48314L10.8566 16.0141L7.47829 3.40599C7.72139 3.2605 7.96905 3.12185 8.22101 2.9903Z" fill="#1B1C1E"/>
<path d="M38.8982 22.6061H42.0902V17.0621H48.4555V14.2435H42.0902V11.8728H48.8662V9.07278H38.8982V22.6061Z" fill="#1B1C1E"/>
<path d="M54.2913 14.6541C55.5047 14.6541 56.4753 15.4008 56.4753 17.5475C56.4753 19.6568 55.542 20.4595 54.2913 20.4595C53.0407 20.4595 52.1073 19.6568 52.1073 17.5475C52.1073 15.4008 53.078 14.6541 54.2913 14.6541ZM54.2913 12.2648C51.51 12.2648 48.9713 13.9075 48.9713 17.5475C48.9713 21.1875 51.51 22.8488 54.2913 22.8488C57.0727 22.8488 59.6113 21.1875 59.6113 17.5475C59.6113 13.9075 57.0727 12.2648 54.2913 12.2648Z" fill="#1B1C1E"/>
<path d="M65.5256 12.2648C62.4829 12.2648 60.3923 14.3368 60.3923 17.5288C60.3923 20.7208 62.2216 22.8488 65.5256 22.8488C67.5416 22.8488 69.9496 21.8968 70.6403 18.9101H67.7656C67.5416 19.8621 66.8509 20.4595 65.7123 20.4595C64.6109 20.4595 63.5283 19.7315 63.5283 17.5475C63.5283 15.4008 64.6109 14.6541 65.7123 14.6541C66.6269 14.6541 67.3549 15.0648 67.6349 16.2408H70.5096C69.9123 13.2168 67.6163 12.2648 65.5256 12.2648Z" fill="#1B1C1E"/>
<path d="M77.8774 16.3341C73.9761 16.6328 71.1947 17.4355 71.1947 19.8995C71.1947 21.7288 72.7627 22.8488 74.6667 22.8488C76.1041 22.8488 77.2987 22.4568 78.0454 21.3928L78.0827 22.6061H81.1067C80.9574 21.9715 80.8827 20.7955 80.8827 19.6941V18.6488L80.9201 16.4648C80.9761 13.4221 79.3334 12.2461 76.4401 12.2461C73.4534 12.2461 71.6614 13.9261 71.5121 15.8115H74.3867C74.5174 14.8408 75.1894 14.3368 76.1787 14.3368C77.2987 14.3368 77.8774 14.7475 77.8774 15.9421V16.3341ZM77.9521 18.3875C77.9521 20.2355 77.0187 20.7581 75.7867 20.7581C74.9841 20.7581 74.3681 20.3288 74.3681 19.6755C74.3681 18.5928 75.8054 18.3501 77.9521 18.1448V18.3875Z" fill="#1B1C1E"/>
<path d="M85.5808 9.07278H82.5008V22.6061H85.5808V9.07278Z" fill="#1B1C1E"/>
<path d="M87.5445 9.07278V22.6061H90.7365V17.9208H92.7525C96.2619 17.9208 98.8939 17.0435 98.8939 13.4781C98.8939 9.93145 96.2619 9.07278 92.7525 9.07278H87.5445ZM92.8459 11.7608C94.3392 11.7608 95.5152 12.0595 95.5152 13.4781C95.5152 14.8968 94.3392 15.2328 92.8459 15.2328H90.7365V11.7608H92.8459Z" fill="#1B1C1E"/>
<path d="M104.305 14.6541C105.518 14.6541 106.489 15.4008 106.489 17.5475C106.489 19.6568 105.556 20.4595 104.305 20.4595C103.054 20.4595 102.121 19.6568 102.121 17.5475C102.121 15.4008 103.092 14.6541 104.305 14.6541ZM104.305 12.2648C101.524 12.2648 98.9849 13.9075 98.9849 17.5475C98.9849 21.1875 101.524 22.8488 104.305 22.8488C107.086 22.8488 109.625 21.1875 109.625 17.5475C109.625 13.9075 107.086 12.2648 104.305 12.2648Z" fill="#1B1C1E"/>
<path d="M110.857 12.5635V22.6061H113.956V12.5635H110.857ZM110.857 9.07278V11.5368H113.937V9.07278H110.857Z" fill="#1B1C1E"/>
<path d="M118.869 12.5635H115.789V22.6061H118.869V17.4541C118.869 15.5875 119.41 14.7288 120.735 14.7288C122.229 14.7288 122.285 15.9048 122.285 17.3421V22.6061H125.365V16.5768C125.365 13.8515 124.562 12.3395 121.986 12.3395C120.399 12.3395 119.317 13.1421 118.869 13.8888V12.5635Z" fill="#1B1C1E"/>
<path d="M127.494 12.5635H125.908V14.7475H127.494V19.7875C127.494 22.1208 128.334 22.6061 130.817 22.6061H132.777V20.3848H131.9C130.873 20.3848 130.574 20.1981 130.574 19.2461V14.7475H132.777V12.5635H130.574V9.81945H127.494V12.5635Z" fill="#1B1C1E"/>
</svg>
